<?xml version="1.0" encoding="UTF-8"?>
<svg version="1.1" xmlns="http://www.w3.org/2000/svg" width="512" height="512">
<path d="M0 0 C0.61794434 0.29745117 1.23588867 0.59490234 1.87255859 0.90136719 C17.38396266 8.44304853 31.1960697 18.45091373 43.48681641 30.52197266 C44.97653336 31.97707857 46.49064031 33.40200793 48.01171875 34.82421875 C59.99970438 46.20254644 69.89355714 59.62284182 78 74 C78.37688965 74.65564941 78.7537793 75.31129883 79.14208984 75.98681641 C104.23054778 119.95471754 112.20584043 170.59595117 114.26635742 220.49951172 C114.30121246 221.27474182 114.3360675 222.04997192 114.37197876 222.84869385 C114.43684328 224.30017275 114.49504024 225.75197266 114.54501343 227.20404053 C114.81500786 233.08119108 116.02867942 238.50020997 118.7265625 243.74609375 C119.190625 244.6597168 119.190625 244.6597168 119.6640625 245.59179688 C119.98117187 246.20087891 120.29828125 246.80996094 120.625 247.4375 C120.94984375 248.07365234 121.2746875 248.70980469 121.609375 249.36523438 C122.40071353 250.91299944 123.1995667 252.4569187 124 254 C124.56847656 253.7834375 125.13695312 253.566875 125.72265625 253.34375 C134.13989492 250.3084853 140.79836753 250.27334583 149 254 C154.29297591 257.19686377 157.70817652 261.96089859 159.5859375 267.83203125 C161.25927764 276.59338766 160.60651117 285.29751384 156 293 C149.54069074 302.19051826 140.98612587 307.69393795 130.16015625 310.66455078 C124.11036527 311.60401878 117.68989545 310.84327443 111.60351562 310.48242188 C105.77438448 310.3174147 102.01460489 310.30275833 97.5546875 314.3125 C96.3694062 315.54129497 95.18447194 316.77042485 94 318 C87.50046137 322.05091346 80.640511 325.10111635 73 326 C72.319375 326.0825 71.63875 326.165 70.9375 326.25 C62.57169976 326.7421059 54.43905378 323.58723494 46.66796875 320.80859375 C37.96246568 317.78745786 30.59085852 317.55192769 21.58203125 319.53125 C13.81412624 320.94145968 4.48048106 321.47303589 -2.4296875 317.1953125 C-9.35057961 311.92717075 -13.24371089 305.48873068 -15 297 C-16.09050939 286.76451709 -12.97725081 278.42200741 -6.8984375 270.265625 C-2.77807665 265.34832192 1.02918083 262.31852778 7 260 C3.68956187 235.65325779 0.35496642 211.73026565 -17 193 C-17.64195312 192.30390625 -18.28390625 191.6078125 -18.9453125 190.890625 C-27.02014297 182.96930842 -39.57159717 175.99944207 -51 175 C-52.14082031 174.88011719 -52.14082031 174.88011719 -53.3046875 174.7578125 C-65.60788272 174.08958784 -76.06503484 179.21091549 -85.26953125 186.89453125 C-104.06953549 204.1572268 -106.73212541 230.00994111 -109 254 C-107.94099487 254.26780273 -107.94099487 254.26780273 -106.8605957 254.54101562 C-99.49944158 256.45559534 -94.73721852 259.29340051 -90.25 265.5625 C-85.84292712 273.15008179 -85.18492461 281.94748538 -87.12109375 290.3984375 C-89.93131898 298.71670417 -95.22426523 304.09226277 -103 308 C-110.48299137 310.91709833 -117.03771521 310.75535167 -124.375 308 C-127.17380424 307.06262215 -127.17380424 307.06262215 -130 307 C-132.83673487 308.55724451 -134.90420946 310.46015879 -137.2734375 312.66015625 C-152.14460792 325.4220919 -172.32900796 326.82759877 -191 326 C-199.41399867 325.28694927 -206.55313643 322.84243551 -213.01171875 317.26171875 C-214.88853421 315.75941334 -214.88853421 315.75941334 -216.9296875 316.328125 C-217.57164062 316.63234375 -218.21359375 316.9365625 -218.875 317.25 C-228.30991254 321.28364151 -238.68160316 321.01680275 -248.421875 318.0390625 C-255.54831181 315.16689251 -259.80574581 310.89958905 -263 304 C-265.88828957 295.31561582 -264.87117617 283.67857772 -261.32421875 275.40234375 C-257.07133527 267.68693567 -251.51077279 263.03886413 -243.12890625 260.4140625 C-236.53130477 259.13085928 -229.1740756 259.2559664 -223 262 C-223.33 261.34 -223.66 260.68 -224 260 C-224.0720193 258.66584249 -224.08386063 257.32811667 -224.0625 255.9921875 C-224.05476563 255.16847656 -224.04703125 254.34476562 -224.0390625 253.49609375 C-224.01383566 251.80337308 -223.98784839 250.11066349 -223.9609375 248.41796875 C-223.91167705 243.05679026 -224.11820006 237.76391801 -224.484375 232.4140625 C-228.85420115 168.10195347 -219.30912328 95.66934995 -176 45 C-175.07324591 43.8784073 -174.14753768 42.75594992 -173.22265625 41.6328125 C-147.62429127 10.81199669 -111.39387025 -9.37849184 -71.47119141 -13.77734375 C-46.6506662 -16.0136922 -22.27670316 -10.93510744 0 0 Z " fill="#FDCE87" transform="translate(308,100)"/>
<path d="M0 0 C0.9269165 0.44617676 0.9269165 0.44617676 1.87255859 0.90136719 C17.38396266 8.44304853 31.1960697 18.45091373 43.48681641 30.52197266 C44.97653336 31.97707857 46.49064031 33.40200793 48.01171875 34.82421875 C59.99970438 46.20254644 69.89355714 59.62284182 78 74 C78.37688965 74.65564941 78.7537793 75.31129883 79.14208984 75.98681641 C105.17310781 121.60656821 112.17440674 173.68223104 114.66796875 225.296875 C114.71926941 226.35308548 114.71926941 226.35308548 114.77160645 227.43063354 C114.93437225 230.95692135 115.03629108 234.46994504 115 238 C114.05125 237.13375 113.1025 236.2675 112.125 235.375 C101.13200777 226.03426111 89.95414578 221.68067881 75.5859375 221.8984375 C74.66192139 221.90576904 73.73790527 221.91310059 72.78588867 221.9206543 C70.52374431 221.93966391 68.26196515 221.96629885 66 222 C65.91548584 220.94538574 65.83097168 219.89077148 65.74389648 218.80419922 C63.87370079 195.98243339 61.21544187 174.09345633 55 152 C54.76055664 151.12843262 54.52111328 150.25686523 54.27441406 149.35888672 C43.65858099 111.58716717 19.89196946 77.43903293 -14.34399414 57.82885742 C-30.41273972 48.96987347 -47.54991233 44.59460909 -65.875 44.6875 C-67.02323242 44.69241455 -68.17146484 44.6973291 -69.35449219 44.70239258 C-77.35494033 44.81328875 -84.38509249 45.41655669 -92 48 C-93.11761719 48.3403125 -94.23523438 48.680625 -95.38671875 49.03125 C-110.1659156 53.84383775 -121.67139246 61.60091923 -133 72 C-133.80050781 72.71800781 -134.60101563 73.43601562 -135.42578125 74.17578125 C-155.01821117 92.65460947 -167.32659766 119.12586237 -173.18261719 145.04296875 C-173.62481047 146.99916156 -174.07713971 148.9527928 -174.53125 150.90625 C-176.9834105 161.58291341 -179.10855883 172.14311516 -180.0625 183.0625 C-180.14556396 183.97990967 -180.22862793 184.89731934 -180.31420898 185.8425293 C-181.07591815 194.81002576 -181.40980275 203.78858974 -181.65844727 212.78344727 C-181.68994873 213.84104248 -181.7214502 214.8986377 -181.75390625 215.98828125 C-181.77783447 216.93227783 -181.8017627 217.87627441 -181.82641602 218.84887695 C-182 221 -182 221 -183 222 C-184.7380389 222.29390195 -186.4769277 222.58354462 -188.21948242 222.84936523 C-196.46569849 224.14294426 -202.9623098 226.3290775 -210 231 C-210.928125 231.5775 -211.85625 232.155 -212.8125 232.75 C-215.72670857 235.74747167 -217.62525628 239.12512594 -219.66796875 242.7578125 C-221 245 -221 245 -223 247 C-230.78043835 180.65786944 -222.7522619 103.99924126 -180.125 49.875 C-178.75901516 48.2424145 -177.38307955 46.61812885 -176 45 C-175.07324591 43.8784073 -174.14753768 42.75594992 -173.22265625 41.6328125 C-147.62429127 10.81199669 -111.39387025 -9.37849184 -71.47119141 -13.77734375 C-46.6506662 -16.0136922 -22.27670316 -10.93510744 0 0 Z " fill="#FD9A83" transform="translate(308,100)"/>
<path d="M0 0 C29.99315788 23.14127267 45.00093615 56.70236123 53 93 C53.18626953 93.83176758 53.37253906 94.66353516 53.56445312 95.52050781 C54.13456911 98.07443419 54.69416911 100.63042977 55.25 103.1875 C55.4253125 103.97713135 55.600625 104.7667627 55.78125 105.58032227 C57.98345301 115.9242385 57.98345301 115.9242385 55.9765625 120.16015625 C55.30753906 121.10181641 55.30753906 121.10181641 54.625 122.0625 C52.60907742 124.94491562 51.22527416 127.69634024 50 131 C49.10539063 131.10957031 48.21078125 131.21914063 47.2890625 131.33203125 C39.92962171 132.29707519 33.02055475 133.58625328 26 136 C25.01 136.33 24.02 136.66 23 137 C22.90501221 136.30140869 22.81002441 135.60281738 22.7121582 134.88305664 C19.43406373 111.19323088 15.86394553 88.20033367 -1 70 C-1.64195312 69.30390625 -2.28390625 68.6078125 -2.9453125 67.890625 C-11.02014297 59.96930842 -23.57159717 52.99944207 -35 52 C-35.76054687 51.92007813 -36.52109375 51.84015625 -37.3046875 51.7578125 C-49.60788272 51.08958784 -60.06503484 56.21091549 -69.26953125 63.89453125 C-88.06953549 81.1572268 -90.73212541 107.00994111 -93 131 C-94.2684375 131.05607422 -94.2684375 131.05607422 -95.5625 131.11328125 C-102.31064379 131.50436686 -107.82797163 132.21653623 -114 135 C-114.14695313 133.83984375 -114.14695313 133.83984375 -114.296875 132.65625 C-115.60345317 123.5552572 -117.89314436 115.34074965 -125 109 C-128.57653096 106.50956248 -132.25034205 104.21958737 -136 102 C-134.33507642 64.62533613 -126.30678911 27.49508877 -98.18359375 0.765625 C-93.29588871 -3.64164516 -87.79662322 -6.90296845 -82 -10 C-81.22011719 -10.41894531 -80.44023437 -10.83789062 -79.63671875 -11.26953125 C-54.21173503 -23.67989807 -21.96802324 -16.28878996 0 0 Z " fill="#91B397" transform="translate(292,223)"/>
<path d="M0 0 C7.63059929 7.46103041 10.73229125 15.30798209 11.8125 25.75 C12.658125 25.255 13.50375 24.76 14.375 24.25 C21.09663427 21.38885629 29.65278043 21.61711548 36.609375 23.51171875 C44.09680779 26.69010884 49.45062537 31.28322772 52.8125 38.75 C55.38630189 47.45479226 55.54639005 55.91401922 51.65234375 64.2265625 C47.5062288 71.13290439 41.54005505 75.90582911 33.75 78.125 C26.98229987 79.19923812 22.77203981 79.12879343 16.4375 76.75 C13.63869576 75.81262215 13.63869576 75.81262215 10.8125 75.75 C7.97576513 77.30724451 5.90829054 79.21015879 3.5390625 81.41015625 C-11.33210792 94.1720919 -31.51650796 95.57759877 -50.1875 94.75 C-58.60149867 94.03694927 -65.74063643 91.59243551 -72.19921875 86.01171875 C-74.07603421 84.50941334 -74.07603421 84.50941334 -76.1171875 85.078125 C-76.75914063 85.38234375 -77.40109375 85.6865625 -78.0625 86 C-87.49741254 90.03364151 -97.86910316 89.76680275 -107.609375 86.7890625 C-114.73581181 83.91689251 -118.99324581 79.64958905 -122.1875 72.75 C-125.07578957 64.06561582 -124.05867617 52.42857772 -120.51171875 44.15234375 C-116.25883527 36.43693567 -110.69827279 31.78886413 -102.31640625 29.1640625 C-95.71880477 27.88085928 -88.3615756 28.0059664 -82.1875 30.75 C-82.5175 30.09 -82.8475 29.43 -83.1875 28.75 C-84.68488344 19.23498115 -80.74003481 11.72059444 -75.30859375 4.12109375 C-69.58480809 -2.27731858 -61.43854309 -6.23339394 -53.1875 -8.25 C-52.42824219 -8.45367187 -51.66898437 -8.65734375 -50.88671875 -8.8671875 C-32.55943019 -13.02859361 -15.36079381 -10.84291328 0 0 Z " fill="#E0ECEC" transform="translate(167.1875,331.25)"/>
<path d="M0 0 C10.58737023 6.82561971 16.40343646 14.77801814 20.875 26.375 C21.44347656 26.1584375 22.01195312 25.941875 22.59765625 25.71875 C31.01489492 22.6834853 37.67336753 22.64834583 45.875 26.375 C51.16797591 29.57186377 54.58317652 34.33589859 56.4609375 40.20703125 C58.13427764 48.96838766 57.48151117 57.67251384 52.875 65.375 C46.41569074 74.56551826 37.86112587 80.06893795 27.03515625 83.03955078 C20.98536527 83.97901878 14.56489545 83.21827443 8.47851562 82.85742188 C2.64938448 82.6924147 -1.11039511 82.67775833 -5.5703125 86.6875 C-6.7555938 87.91629497 -7.94052806 89.14542485 -9.125 90.375 C-15.62453863 94.42591346 -22.484489 97.47611635 -30.125 98.375 C-30.805625 98.4575 -31.48625 98.54 -32.1875 98.625 C-40.55330024 99.1171059 -48.68594622 95.96223494 -56.45703125 93.18359375 C-65.16253432 90.16245786 -72.53414148 89.92692769 -81.54296875 91.90625 C-89.31087376 93.31645968 -98.64451894 93.84803589 -105.5546875 89.5703125 C-112.47557961 84.30217075 -116.36871089 77.86373068 -118.125 69.375 C-119.21561004 59.13857245 -116.10479755 50.78246507 -110.01171875 42.6328125 C-102.72765078 33.91606035 -93.89915033 30.25177143 -83.125 27.375 C-82.4753125 27.18421875 -81.825625 26.9934375 -81.15625 26.796875 C-78.68756887 26.28414892 -76.39416726 26.27935306 -73.875 26.3125 C-72.98296875 26.32152344 -72.0909375 26.33054687 -71.171875 26.33984375 C-70.49640625 26.35144531 -69.8209375 26.36304688 -69.125 26.375 C-68.939375 25.42625 -68.75375 24.4775 -68.5625 23.5 C-65.52826365 13.1208191 -56.51848211 4.23557094 -47.47265625 -1.2265625 C-31.54278333 -9.41906857 -15.62216401 -8.52558408 0 0 Z " fill="#E0ECEC" transform="translate(411.125,327.625)"/>
</svg>
