<?xml version="1.0" encoding="UTF-8"?>
<svg version="1.1" xmlns="http://www.w3.org/2000/svg" width="512" height="512">
<path d="M0 0 C4.83813146 3.35108672 9.34460359 6.92753171 13.70703125 10.875 C14.31595215 11.42365723 14.92487305 11.97231445 15.55224609 12.53759766 C28.2782981 24.07676398 39.80038576 36.15345973 50.2890625 49.75390625 C54.7839769 56.12571199 54.7839769 56.12571199 60.70703125 60.875 C67.18807179 61.341028 73.56333875 60.9406712 79.99316406 60.15649414 C140.38236569 52.88835745 140.38236569 52.88835745 158.94140625 66.515625 C168.27749627 74.35248889 172.43865837 82.51693563 173.80859375 94.625 C173.8932489 95.36502258 173.97790405 96.10504517 174.06512451 96.86749268 C174.93740215 105.11924347 175.01207018 113.33542736 174.95703125 121.625 C174.95437256 122.79506592 174.95437256 122.79506592 174.95166016 123.98876953 C174.92054377 135.70528428 174.25419413 147.2077188 172.92529297 158.85205078 C172.60306269 161.83862804 172.38958689 164.81110912 172.26953125 167.8125 C172.22957031 168.66714844 172.18960937 169.52179688 172.1484375 170.40234375 C173.50908293 176.42534067 179.03971825 180.11038121 183.76953125 183.5625 C189.94742045 188.16474893 195.55442201 193.17912345 201.16064453 198.45751953 C202.93809023 200.08679798 204.76434039 201.65199578 206.59375 203.22265625 C216.76610777 212.08781008 226.50434414 222.43217061 233.70703125 233.875 C234.15691406 234.54789063 234.60679687 235.22078125 235.0703125 235.9140625 C239.20137519 243.26763801 238.85390528 252.72939716 237.70703125 260.875 C234.86482139 270.81698105 227.53373028 278.39973318 220.70703125 285.875 C220.15418457 286.48811035 219.60133789 287.1012207 219.03173828 287.73291016 C208.15407701 299.77306958 196.69719939 310.49743668 183.86328125 320.421875 C177.47446714 324.93550197 177.47446714 324.93550197 172.70703125 330.875 C172.20643649 337.08004664 172.71140147 343.23513154 173.42553711 349.39819336 C174.66638618 360.31615847 174.93209211 371.14951309 174.95703125 382.125 C174.96452393 383.25349365 174.96452393 383.25349365 174.97216797 384.40478516 C175.01741325 392.70638956 174.74921647 400.88466306 173.796875 409.13671875 C173.67672028 410.18022491 173.67672028 410.18022491 173.55413818 411.24481201 C172.08641936 422.77497085 167.26870446 429.44897736 159.14453125 437.375 C156.04634621 439.28157541 154.28656229 439.40812164 150.70703125 438.875 C150.0934375 438.36453125 149.47984375 437.8540625 148.84765625 437.328125 C146.08390351 435.45200088 144.78279021 435.72132015 141.51953125 436.1875 C136.52130194 436.80556061 131.74068882 436.95751898 126.70703125 436.875 C126.62453125 437.638125 126.54203125 438.40125 126.45703125 439.1875 C125.52568517 442.52482347 124.66122418 443.14561752 121.70703125 444.875 C119.01586914 445.24731445 119.01586914 445.24731445 115.9296875 445.23828125 C114.78628906 445.23892578 113.64289063 445.23957031 112.46484375 445.24023438 C111.24539063 445.22283203 110.0259375 445.20542969 108.76953125 445.1875 C106.89201172 445.17493164 106.89201172 445.17493164 104.9765625 445.16210938 C95.63791241 445.04299394 86.45078869 444.33111769 77.171875 443.33984375 C73.37265796 442.9348185 69.5889828 442.59177405 65.76953125 442.4375 C64.91488281 442.39753906 64.06023437 442.35757812 63.1796875 442.31640625 C57.15669058 443.67705168 53.47165004 449.207687 50.01953125 453.9375 C45.73756457 459.68545412 41.11223234 464.96044866 36.2109375 470.18359375 C34.21684617 472.32700861 32.32540593 474.49934917 30.45703125 476.75 C19.34880728 489.50980643 3.42757417 506.54494737 -14.12109375 508.24609375 C-30.01430647 508.9788462 -38.90797405 502.6340525 -50.35546875 492.375 C-51.10957031 491.6840625 -51.86367187 490.993125 -52.640625 490.28125 C-54.78192032 488.33863157 -56.95195481 486.44988535 -59.14453125 484.56640625 C-63.20134859 481.02209399 -66.93530469 477.25239254 -70.60546875 473.3125 C-71.24991943 472.62357666 -71.89437012 471.93465332 -72.55834961 471.22485352 C-77.68314332 465.67813011 -82.39433636 459.88518002 -86.98046875 453.890625 C-91.41892648 447.56972622 -91.41892648 447.56972622 -97.29296875 442.875 C-103.90438595 442.39233287 -110.42249232 442.8440206 -116.98779297 443.59350586 C-177.55214516 450.43294739 -177.55214516 450.43294739 -195.52734375 437.234375 C-205.11649998 429.18508327 -209.46933984 420.74516413 -210.77685547 408.34423828 C-212.51129013 387.31057856 -211.90078431 365.83611905 -209.51123047 344.89794922 C-209.18900019 341.91137196 -208.97552439 338.93889088 -208.85546875 335.9375 C-208.79552734 334.65552734 -208.79552734 334.65552734 -208.734375 333.34765625 C-210.09502043 327.32465933 -215.62565575 323.63961879 -220.35546875 320.1875 C-226.53335795 315.58525107 -232.14035951 310.57087655 -237.74658203 305.29248047 C-239.52402773 303.66320202 -241.35027789 302.09800422 -243.1796875 300.52734375 C-253.35204527 291.66218992 -263.09028164 281.31782939 -270.29296875 269.875 C-270.74285156 269.20210938 -271.19273437 268.52921875 -271.65625 267.8359375 C-275.77783398 260.49923475 -275.46612634 251.0037033 -274.29296875 242.875 C-271.58625669 233.86624514 -265.51173613 226.74748657 -259.29296875 219.875 C-258.74431152 219.2660791 -258.1956543 218.6571582 -257.63037109 218.02978516 C-246.09120477 205.30373315 -234.01450902 193.78164549 -220.4140625 183.29296875 C-214.04225676 178.79805435 -214.04225676 178.79805435 -209.29296875 172.875 C-208.77920554 166.50672581 -209.32378874 160.17189847 -210.01220703 153.84106445 C-211.02205013 144.52152983 -211.58900191 135.24979823 -211.73046875 125.875 C-211.76462891 124.75915527 -211.79878906 123.64331055 -211.83398438 122.49365234 C-211.88222177 113.76402453 -211.88222177 113.76402453 -208.953125 110.625 C-206.29296875 108.875 -206.29296875 108.875 -203.29296875 108.875 C-203.20589983 105.60433434 -203.15255634 102.33396635 -203.10546875 99.0625 C-203.08033203 98.13373047 -203.05519531 97.20496094 -203.02929688 96.24804688 C-203.01962891 95.35537109 -203.00996094 94.46269531 -203 93.54296875 C-202.98428955 92.72078857 -202.9685791 91.8986084 -202.95239258 91.05151367 C-203.37342101 88.36085528 -204.35102804 87.69629595 -206.29296875 85.875 C-206.82947232 81.81290155 -206.63153059 79.52503873 -204.73046875 75.875 C-196.77192822 66.0798732 -189.12248536 61.06249288 -176.29296875 59.5625 C-155.14213032 57.55033834 -133.34559973 58.15261949 -112.28125 60.65673828 C-109.1604452 60.99932172 -106.05495846 61.19696355 -102.91796875 61.3125 C-101.48324219 61.37244141 -101.48324219 61.37244141 -100.01953125 61.43359375 C-93.79284353 60.15792564 -90.1609503 54.68393227 -86.60546875 49.8125 C-82.00321982 43.6346108 -76.9888453 38.02760924 -71.71044922 32.42138672 C-70.08117077 30.64394102 -68.51597297 28.81769086 -66.9453125 26.98828125 C-58.08015867 16.81592348 -47.73579814 7.07768711 -36.29296875 -0.125 C-35.62007812 -0.57488281 -34.9471875 -1.02476563 -34.25390625 -1.48828125 C-24.15554252 -7.16130025 -9.63350248 -5.69312322 0 0 Z " fill="#E78F1A" transform="translate(274.29296875,4.125)"/>
<path d="M0 0 C2.15831131 0.445669 4.32143192 0.83504288 6.49169922 1.21777344 C46.7867887 8.73474511 83.29694225 35.30745992 106.60766602 68.47998047 C115.82112908 82.04881792 123.11491187 96.84289374 128.15185547 112.44433594 C128.52826172 113.59160156 128.90466797 114.73886719 129.29248047 115.92089844 C136.33092427 139.60998914 137.68637306 166.11685427 132.59619141 190.29248047 C132.1505224 192.45079178 131.76114853 194.61391239 131.37841797 196.78417969 C123.84852838 237.1485163 97.2236067 273.66767195 63.97119141 296.97265625 C43.73822806 310.71830941 22.04247496 318.79960413 -1.84814453 323.44433594 C-3.67925781 323.81558594 -3.67925781 323.81558594 -5.54736328 324.19433594 C-45.56583309 331.14567448 -88.94038071 319.73563897 -121.94580078 296.62792969 C-160.26648129 268.95441588 -183.3971822 230.63814712 -191.59814453 184.33496094 C-197.78313867 142.92986129 -187.01337739 100.09286824 -162.49951172 66.24438477 C-140.90608288 37.24246186 -112.41760933 15.60512751 -77.84814453 4.44433594 C-76.12724609 3.87972656 -76.12724609 3.87972656 -74.37158203 3.30371094 C-50.68249132 -3.73473286 -24.1756262 -5.09018165 0 0 Z " fill="#F6EE86" transform="translate(284.84814453125,94.5556640625)"/>
<path d="M0 0 C0.99 0.495 0.99 0.495 2 1 C1.38125 1.56589844 0.7625 2.13179688 0.125 2.71484375 C-3.46089455 6.57099874 -4.52775766 11.01483963 -6 16 C-6.36480469 17.20269531 -6.72960937 18.40539062 -7.10546875 19.64453125 C-11.65136828 36.58428699 -10.84067299 54.58803063 -11 72 C-10.34 71.67 -9.68 71.34 -9 71 C-0.78469049 70.33448356 7.06374147 70.07704912 14 75 C19.82182883 80.25217826 23.95783437 86.12057979 24.4375 94.125 C23.94194217 98.51422646 23.41205832 100.20036241 20 103 C16.5 103.625 16.5 103.625 13 103 C9.99627033 100.32099786 9.08790112 98.31314773 8 94.4375 C6.89315459 90.6327189 6.33219018 89.13601934 3 87 C-0.13076895 86.3785365 -2.87004486 86.36841977 -6 87 C-9.80675596 89.59183384 -11.18696789 91.97226315 -12.3125 96.3125 C-12.539375 97.529375 -12.76625 98.74625 -13 100 C-12.38253906 100.14695312 -11.76507813 100.29390625 -11.12890625 100.4453125 C-0.65390355 103.21951413 5.68445659 107.68421584 11.6875 116.73046875 C13.97855633 120.69208698 14.16172769 123.8700007 14.1875 128.375 C14.20167969 129.49648437 14.21585937 130.61796875 14.23046875 131.7734375 C14 135 14 135 12.92578125 137.5390625 C11.6829099 140.84289774 12.05295739 142.60924923 13 146 C14.26026759 148.48115182 15.53304911 150.77573705 17 153.125 C17.40371826 153.78169678 17.80743652 154.43839355 18.22338867 155.11499023 C35.32848587 182.5183592 58.3229189 204.20422647 87 219 C87.61842773 219.31952637 88.23685547 219.63905273 88.87402344 219.96826172 C114.45313411 232.97539588 142.48147772 238.21162302 171 238.25 C171.78959106 238.25233643 172.57918213 238.25467285 173.3927002 238.25708008 C187.44235992 238.27271687 201.1087869 237.21944595 215 235 C211.35765079 240.66614457 207.56227582 245.99434223 203.125 251.0625 C202.59890137 251.66682861 202.07280273 252.27115723 201.53076172 252.89379883 C184.7152516 272.07213805 164.27562597 285.81857164 141 296 C139.35451172 296.74056641 139.35451172 296.74056641 137.67578125 297.49609375 C127.53781388 301.75006437 116.7391459 303.84131476 106 306 C104.7728125 306.25007813 103.545625 306.50015625 102.28125 306.7578125 C62.24359825 313.65750491 18.92621642 302.30422204 -14.09765625 279.18359375 C-52.41833676 251.51007995 -75.54903767 213.19381118 -83.75 166.890625 C-89.93499414 125.48552536 -79.16523286 82.6485323 -54.65136719 48.80004883 C-40.06456234 29.20865403 -21.95584248 11.21208016 0 0 Z " fill="#EED075" transform="translate(177,112)"/>
<path d="M0 0 C8.0441152 3.47208926 13.9444271 9.83929108 20.13134766 15.85302734 C22.02077155 17.65805419 23.99199189 19.34735231 25.99609375 21.0234375 C30.66098746 25.06700288 34.646011 29.67816179 38.68359375 34.3359375 C39.40434082 35.16351563 39.40434082 35.16351563 40.13964844 36.0078125 C50.03855436 47.38557595 50.03855436 47.38557595 54.43359375 53.3359375 C59.06167571 59.38284751 64.29482135 63.33576302 71.68359375 65.3359375 C74.86728286 65.65076538 74.86728286 65.65076538 78.18359375 65.5859375 C79.8078125 65.59367187 79.8078125 65.59367187 81.46484375 65.6015625 C84.93127415 65.47815077 88.24655217 64.9118267 91.6640625 64.33203125 C101.1890042 62.91600763 110.71490393 63.07266528 120.32592773 63.13012695 C123.50707968 63.14850095 126.68794083 63.15063516 129.86914062 63.15039062 C131.91797124 63.1553035 133.96679991 63.16113082 136.015625 63.16796875 C136.9533223 63.16908157 137.89101959 63.1701944 138.85713196 63.17134094 C156.2213878 63.29510411 156.2213878 63.29510411 163.68359375 69.3359375 C171.43488961 77.69917777 170.8386311 87.11012618 170.8515625 97.93359375 C170.8548909 98.92612656 170.8582193 99.91865936 170.86164856 100.94126892 C170.86668528 103.03302552 170.8690579 105.12479007 170.86889648 107.21655273 C170.87107081 110.3652117 170.88922825 113.51351275 170.90820312 116.66210938 C170.93625955 126.92296249 170.6755225 136.90993848 169.16333008 147.06713867 C167.60678439 157.67303699 168.48038107 165.33168651 174.68359375 174.3359375 C177.44018806 177.36031525 180.4418109 179.84830122 183.68359375 182.3359375 C185.33072306 183.64681074 186.97653562 184.95934003 188.62109375 186.2734375 C189.45769531 186.93601563 190.29429687 187.59859375 191.15625 188.28125 C195.48379484 191.79947038 199.57181983 195.57035429 203.68359375 199.3359375 C204.6997836 200.24821771 205.71673945 201.15964523 206.734375 202.0703125 C212.4360063 207.19476574 217.81624344 212.39799087 222.68359375 218.3359375 C223.44800781 219.23570312 224.21242188 220.13546875 225 221.0625 C235.48441037 233.54955056 235.48441037 233.54955056 235.06640625 241.9375 C233.33052223 252.81334481 224.59387255 260.15996848 217.26464844 267.68554688 C215.40422266 269.62756019 213.65825604 271.64794432 211.93359375 273.7109375 C203.07634528 283.95626222 191.63753471 292.97403921 180.74609375 301.0234375 C174.66996158 305.69223023 170.71742372 310.90642164 168.68359375 318.3359375 C168.06336739 325.11282256 168.66841087 331.75347918 169.68359375 338.4609375 C171.01558181 347.41902621 170.85868944 356.29905423 170.68359375 365.3359375 C159.81643695 367.13911617 148.97688505 368.60894134 137.99609375 369.5234375 C136.51109375 369.64887939 136.51109375 369.64887939 134.99609375 369.77685547 C129.20574768 370.23228695 123.49145101 370.4136946 117.68359375 370.3359375 C119.13626612 367.28708514 120.48339089 365.41363644 122.99609375 363.1484375 C154.20358293 332.62183899 171.08663124 286.40310511 171.96679688 243.38500977 C172.41207206 194.19323334 153.31725155 149.71280317 119.68359375 114.3359375 C118.75546875 113.31113281 118.75546875 113.31113281 117.80859375 112.265625 C107.07540322 100.81369403 93.36689619 91.85994866 79.68359375 84.3359375 C79.08321289 83.99755859 78.48283203 83.65917969 77.86425781 83.31054688 C60.58807807 73.66245077 41.11607174 67.77042795 21.68359375 64.3359375 C20.43449219 64.11164063 19.18539062 63.88734375 17.8984375 63.65625 C-31.50738042 56.19684005 -78.82806428 72.30382809 -118.31640625 101.3359375 C-121.82260847 91.36967775 -114.00786749 74.31455665 -111.31640625 64.3359375 C-110.0634375 64.325625 -108.81046875 64.3153125 -107.51953125 64.3046875 C-106.81473633 64.29888672 -106.10994141 64.29308594 -105.38378906 64.28710938 C-103.31640625 64.3359375 -103.31640625 64.3359375 -100.06640625 64.8359375 C-89.31767532 66.26910162 -81.47146096 65.64304195 -72.31640625 59.3359375 C-69.2920285 56.57934319 -66.80404253 53.57772035 -64.31640625 50.3359375 C-63.00553301 48.68880819 -61.69300372 47.04299563 -60.37890625 45.3984375 C-59.71890625 44.56441406 -59.05890625 43.73039062 -58.37890625 42.87109375 C-55.56664097 39.41435101 -52.59603293 36.12037129 -49.58984375 32.83203125 C-48.09821084 31.19431058 -46.62349844 29.54098327 -45.16796875 27.87109375 C-16.60825132 -4.76121876 -16.60825132 -4.76121876 0 0 Z " fill="#ECA648" transform="translate(262.31640625,15.6640625)"/>
<path d="M0 0 C1.24662005 0.62264939 2.49403995 1.24369952 3.7421875 1.86328125 C34.77983841 17.53088747 60.41776507 43.61640184 77 74 C77.34369629 74.62696777 77.68739258 75.25393555 78.04150391 75.89990234 C99.66920621 115.89745035 105.01533225 162.51684891 93.1875 206.5 C92.48559075 208.67564976 91.75464295 210.8420745 91 213 C90.78037598 213.67272949 90.56075195 214.34545898 90.33447266 215.03857422 C83.99505167 234.44312552 74.73752935 252.99797807 62 269 C61.57396484 269.53737793 61.14792969 270.07475586 60.70898438 270.62841797 C30.38348114 308.55776035 -11.73294465 331.09048236 -59.5625 338.25 C-105.516119 343.32042913 -152.77894042 330.40147017 -189.28881836 301.8737793 C-195.12157027 297.198398 -200.58835997 292.15139142 -206 287 C-206.75667969 286.30777344 -207.51335937 285.61554688 -208.29296875 284.90234375 C-220.0175808 273.81842088 -229.25860191 260.07864624 -237 246 C-237.33837891 245.39961914 -237.67675781 244.79923828 -238.02539062 244.18066406 C-260.62924413 203.70550382 -264.35900545 154.967869 -252.375 110.71484375 C-248.69687341 97.78622879 -243.32324026 85.83572684 -237 74 C-236.18595703 72.46085937 -236.18595703 72.46085937 -235.35546875 70.890625 C-227.77196253 57.23662353 -217.79765876 45.20978314 -207 34 C-206.31035156 33.2471875 -205.62070313 32.494375 -204.91015625 31.71875 C-153.96853645 -22.25394506 -64.62133918 -33.95993811 0 0 Z M-203.85668945 52.11743164 C-232.67423344 84.92263362 -246.50862005 127.62354985 -244 171 C-243.38935382 178.39764742 -242.33284525 185.70010908 -241 193 C-240.80712402 194.06541016 -240.80712402 194.06541016 -240.61035156 195.15234375 C-232.73228899 236.28665521 -204.95132054 273.73613689 -170.73046875 296.97265625 C-157.76208532 305.46597634 -143.74418987 312.2398213 -129 317 C-127.27910156 317.56460938 -127.27910156 317.56460938 -125.5234375 318.140625 C-101.83434679 325.1790688 -75.32748167 326.53451759 -51.15185547 321.44433594 C-48.99354416 320.99866694 -46.83042355 320.60929306 -44.66015625 320.2265625 C-14.41754427 314.58002014 11.49496216 298.29837021 34 278 C34.74894531 277.32453125 35.49789063 276.6490625 36.26953125 275.953125 C60.96162911 252.41768346 75.59208913 219.9596986 82 187 C82.37125 185.16888672 82.37125 185.16888672 82.75 183.30078125 C89.70133854 143.28231144 78.29130303 99.90776382 55.18359375 66.90234375 C28.4786138 29.92283288 -8.37085411 6.67664455 -53 -2 C-54.22074219 -2.2475 -55.44148437 -2.495 -56.69921875 -2.75 C-111.52168808 -12.27284148 -167.24822389 11.84614317 -203.85668945 52.11743164 Z " fill="#030201" transform="translate(336,96)"/>
<path d="M0 0 C4.83813146 3.35108672 9.34460359 6.92753171 13.70703125 10.875 C14.31595215 11.42365723 14.92487305 11.97231445 15.55224609 12.53759766 C28.2782981 24.07676398 39.80038576 36.15345973 50.2890625 49.75390625 C54.7839769 56.12571199 54.7839769 56.12571199 60.70703125 60.875 C67.18807179 61.341028 73.56333875 60.9406712 79.99316406 60.15649414 C140.38236569 52.88835745 140.38236569 52.88835745 158.94140625 66.515625 C168.27749627 74.35248889 172.43865837 82.51693563 173.80859375 94.625 C173.8932489 95.36502258 173.97790405 96.10504517 174.06512451 96.86749268 C174.93740215 105.11924347 175.01207018 113.33542736 174.95703125 121.625 C174.95437256 122.79506592 174.95437256 122.79506592 174.95166016 123.98876953 C174.92054377 135.70528428 174.25419413 147.2077188 172.92529297 158.85205078 C172.60306269 161.83862804 172.38958689 164.81110912 172.26953125 167.8125 C172.22957031 168.66714844 172.18960937 169.52179688 172.1484375 170.40234375 C173.50908293 176.42534067 179.03971825 180.11038121 183.76953125 183.5625 C189.94742045 188.16474893 195.55442201 193.17912345 201.16064453 198.45751953 C202.93809023 200.08679798 204.76434039 201.65199578 206.59375 203.22265625 C216.76610777 212.08781008 226.50434414 222.43217061 233.70703125 233.875 C234.15691406 234.54789063 234.60679687 235.22078125 235.0703125 235.9140625 C239.20137519 243.26763801 238.85390528 252.72939716 237.70703125 260.875 C234.86482139 270.81698105 227.53373028 278.39973318 220.70703125 285.875 C220.15418457 286.48811035 219.60133789 287.1012207 219.03173828 287.73291016 C208.15407701 299.77306958 196.69719939 310.49743668 183.86328125 320.421875 C177.47446714 324.93550197 177.47446714 324.93550197 172.70703125 330.875 C172.20643649 337.08004664 172.71140147 343.23513154 173.42553711 349.39819336 C174.66638618 360.31615847 174.93209211 371.14951309 174.95703125 382.125 C174.96452393 383.25349365 174.96452393 383.25349365 174.97216797 384.40478516 C175.01741325 392.70638956 174.74921647 400.88466306 173.796875 409.13671875 C173.67672028 410.18022491 173.67672028 410.18022491 173.55413818 411.24481201 C172.08641936 422.77497085 167.26870446 429.44897736 159.14453125 437.375 C156.04634621 439.28157541 154.28656229 439.40812164 150.70703125 438.875 C148.39453125 437.875 148.39453125 437.875 146.70703125 435.875 C145.07109691 431.0489937 145.07109691 431.0489937 145.70703125 427.875 C147.51334416 425.55197739 149.51019516 423.70212465 151.6953125 421.734375 C157.11901075 416.72140342 157.21563399 410.79923418 157.70703125 403.875 C157.84229391 400.3703081 157.87069955 396.87036275 157.875 393.36328125 C157.8783284 392.39198776 157.8816568 391.42069427 157.88508606 390.41996765 C157.89011578 388.37706979 157.89249562 386.33416382 157.89233398 384.29125977 C157.89451326 381.21291114 157.91269203 378.13492577 157.93164062 375.05664062 C157.95899276 365.24059444 157.75506345 355.70733849 156.17456055 346.00805664 C154.64097834 335.73105378 155.11121774 327.57329711 161.0390625 318.93359375 C165.08830624 313.85922501 170.10798548 310.07651285 175.22875977 306.15942383 C180.40607379 302.18346035 185.19745608 297.89890037 189.95703125 293.4375 C192.43382419 291.12957931 194.95931867 288.90173791 197.51953125 286.6875 C201.638569 283.0335149 205.18316586 279.09637277 208.70703125 274.875 C209.54878906 273.90949219 210.39054687 272.94398438 211.2578125 271.94921875 C212.15807117 270.90409274 213.05781206 269.85852051 213.95703125 268.8125 C215.20226562 267.37197266 215.20226562 267.37197266 216.47265625 265.90234375 C220.24927896 260.78541613 222.45730665 255.6866041 222.1640625 249.24609375 C220.29591444 239.55407774 211.63727633 232.17983492 205.07568359 225.32910156 C203.34036963 223.48544655 201.70872097 221.56466328 200.08203125 219.625 C191.11009712 209.29433546 179.63052958 200.29601871 168.70703125 192.0625 C162.40717346 187.19076354 157.92905875 181.64609076 155.70703125 173.875 C154.95297012 167.47944448 155.76659504 161.30107171 156.71875 154.96875 C158.0628604 145.03066498 157.97317376 135.09297596 157.9128418 125.08178711 C157.89441988 121.9183759 157.89233401 118.75525656 157.89257812 115.59179688 C157.88766671 113.55208083 157.88184005 111.51236674 157.875 109.47265625 C157.87333076 108.07552147 157.87333076 108.07552147 157.87162781 106.65016174 C157.92746566 93.26992882 157.92746566 93.26992882 151.70703125 81.875 C143.81358001 74.94458421 134.02567169 75.71888298 124.0390625 75.70703125 C123.04178635 75.70370285 122.04451019 75.70037445 121.01701355 75.69694519 C118.91686459 75.69190926 116.81670772 75.68953583 114.71655273 75.68969727 C111.54592309 75.68751814 108.37564608 75.66934658 105.20507812 75.65039062 C94.46274541 75.62126102 84.30872333 76.0751405 73.70703125 77.875 C63.15981161 78.95709184 55.17495773 77.64406443 46.83203125 71 C42.70989512 67.18804441 39.39045783 62.79579739 35.98925781 58.35107422 C32.03227082 53.19991049 27.77578936 48.42714218 23.3359375 43.69140625 C20.84553335 41.02338041 18.42943781 38.303097 16.01953125 35.5625 C12.1774484 31.29200791 8.12881785 27.53193703 3.70703125 23.875 C2.81628906 23.10800781 1.92554688 22.34101563 1.0078125 21.55078125 C-5.83885019 15.7502662 -11.54326628 10.99094947 -20.921875 11.41796875 C-30.61748582 13.28680971 -37.99466098 21.95119943 -44.84765625 28.51513672 C-46.64617561 30.2073247 -48.52182704 31.79358673 -50.41796875 33.375 C-58.121711 40.07741726 -64.67733463 47.95208874 -70.91796875 56 C-87.07082711 76.72377963 -87.07082711 76.72377963 -99.203125 78.23828125 C-104.13812685 78.36181885 -108.76675616 77.81131874 -113.59765625 76.859375 C-123.38306791 75.31793279 -133.26029777 75.61410254 -143.14160156 75.66918945 C-146.54890389 75.68753195 -149.95593447 75.68969798 -153.36328125 75.68945312 C-155.55338774 75.69436686 -157.74349242 75.70019455 -159.93359375 75.70703125 C-160.94004944 75.70814407 -161.94650513 75.7092569 -162.98345947 75.71040344 C-176.5871995 75.68537804 -176.5871995 75.68537804 -188.29296875 81.875 C-189.36481053 83.0992241 -190.40759778 84.34957068 -191.41796875 85.625 C-193.47510491 88.17830179 -194.1488493 88.82205816 -197.35546875 90 C-201.15302664 89.83840179 -203.60461859 88.56335016 -206.29296875 85.875 C-206.9549059 79.12324111 -205.02188612 76.20457581 -200.85546875 71.12109375 C-192.20738187 61.49593936 -180.90266972 59.66599921 -168.55029297 58.99951172 C-149.71106089 58.27937918 -131.01160451 58.43008361 -112.28125 60.65673828 C-109.1604452 60.99932172 -106.05495846 61.19696355 -102.91796875 61.3125 C-101.48324219 61.37244141 -101.48324219 61.37244141 -100.01953125 61.43359375 C-93.79284353 60.15792564 -90.1609503 54.68393227 -86.60546875 49.8125 C-82.00321982 43.6346108 -76.9888453 38.02760924 -71.71044922 32.42138672 C-70.08117077 30.64394102 -68.51597297 28.81769086 -66.9453125 26.98828125 C-58.08015867 16.81592348 -47.73579814 7.07768711 -36.29296875 -0.125 C-35.62007812 -0.57488281 -34.9471875 -1.02476563 -34.25390625 -1.48828125 C-24.15554252 -7.16130025 -9.63350248 -5.69312322 0 0 Z " fill="#020100" transform="translate(274.29296875,4.125)"/>
<path d="M0 0 C4.1089637 1.34475176 5.11585512 2.53966318 7.4375 6.125 C7.9675293 9.04077148 7.9675293 9.04077148 8.01171875 12.24609375 C8.03878906 13.42292725 8.06585938 14.59976074 8.09375 15.81225586 C8.10921875 17.66862671 8.10921875 17.66862671 8.125 19.5625 C8.17937707 22.09378515 8.23534816 24.6250366 8.29296875 27.15625 C8.32656494 28.96802734 8.32656494 28.96802734 8.36083984 30.81640625 C8.5750454 40.77877552 8.5750454 40.77877552 9.94140625 50.625 C11.67756475 59.37414522 10.73648408 66.49807326 6.3984375 74.30859375 C3.0801871 79.07444742 -1.02388348 82.55318936 -5.5625 86.125 C-6.39265625 86.79015625 -7.2228125 87.4553125 -8.078125 88.140625 C-9.73851601 89.46684927 -11.40260951 90.78845097 -13.0703125 92.10546875 C-17.39059158 95.60638456 -21.46300828 99.37066489 -25.5625 103.125 C-26.57868985 104.03728021 -27.5956457 104.94870773 -28.61328125 105.859375 C-34.31507256 110.98397205 -39.693906 116.1879589 -44.5625 122.125 C-45.33851562 123.03636719 -46.11453125 123.94773437 -46.9140625 124.88671875 C-52.57840784 131.62099599 -56.25062106 136.43519599 -55.984375 145.4609375 C-54.42612008 155.30102875 -45.53902296 162.77204805 -38.93994141 169.66210938 C-37.16144063 171.55093898 -35.48444375 173.51672879 -33.8125 175.5 C-31.00838651 178.73655509 -27.9765807 181.52390102 -24.7109375 184.2890625 C-22.37754533 186.28305217 -20.13111914 188.35661341 -17.875 190.4375 C-14.02695609 193.92924355 -10.03114142 197.08214537 -5.875 200.1875 C1.45780064 205.72776738 8.73126567 211.64764386 10.4375 221.125 C10.9245272 227.6213144 10.75456187 233.7450401 9.43530273 240.12353516 C8.32754998 246.12051268 8.14789517 251.91830783 8.171875 258.00390625 C8.16996155 259.09662338 8.1680481 260.18934052 8.16607666 261.31517029 C8.16472497 263.60847201 8.1683498 265.90178165 8.17675781 268.19506836 C8.18748202 271.6816544 8.17682214 275.16772649 8.1640625 278.65429688 C8.16538407 280.89583446 8.16794642 283.13737172 8.171875 285.37890625 C8.16782654 286.40834854 8.16377808 287.43779083 8.15960693 288.49842834 C8.22742336 299.09203667 9.21576077 307.25054337 16.4375 315.375 C26.35232211 321.15864623 40.47873867 319.43067551 51.54443359 319.38574219 C54.66654095 319.37507163 57.78806693 319.38565615 60.91015625 319.3984375 C71.11593015 319.40492598 81.0595114 319.09972343 91.16210938 317.60253906 C101.75612164 316.05797377 109.46553555 316.87822309 118.4375 323.125 C121.78928996 326.20674053 124.62479528 329.55096167 127.4375 333.125 C128.10265625 333.95515625 128.7678125 334.7853125 129.453125 335.640625 C130.77820753 337.2995866 132.09851526 338.96237309 133.4140625 340.62890625 C136.91665529 344.94967226 140.68707549 349.02005775 144.4375 353.125 C145.26636719 354.05828125 146.09523437 354.9915625 146.94921875 355.953125 C151.83193783 361.42655588 156.77571186 366.46722182 162.4375 371.125 C163.33855469 371.89070313 164.23960937 372.65640625 165.16796875 373.4453125 C174.422845 381.40948976 174.422845 381.40948976 186.0390625 383.5078125 C196.86226641 381.78033044 204.14588685 373.13917939 211.62792969 365.83740234 C213.43094691 364.13120121 215.28640129 362.51831817 217.18359375 360.91796875 C219.60193875 358.8737099 221.77574665 356.81048284 223.8125 354.375 C226.3957312 351.33150489 229.04363763 348.3721671 231.75 345.4375 C235.24174355 341.58945609 238.39464537 337.59364142 241.5 333.4375 C247.12469342 325.99295758 252.92179409 319.07785009 262.4375 317.125 C269.05813851 316.35917987 275.63600185 317.49336716 282.19775391 318.34912109 C287.70923875 318.99641697 293.18453766 319.22582593 298.73046875 319.3046875 C299.82972435 319.32339653 299.82972435 319.32339653 300.95118713 319.34248352 C304.66422074 319.40326336 308.37461495 319.43675 312.08813477 319.43139648 C313.48064454 319.44937594 314.87314254 319.46829838 316.265625 319.48828125 C317.5021582 319.49126221 318.73869141 319.49424316 320.01269531 319.49731445 C324.59131503 320.33646695 326.21716511 321.79528038 329.4375 325.125 C330.125 328.6875 330.125 328.6875 329.4375 332.125 C326.88879963 334.68571175 325.22043417 335.98937683 321.6328125 336.61083984 C320.61960937 336.60262207 319.60640625 336.5944043 318.5625 336.5859375 C316.85223633 336.58207031 316.85223633 336.58207031 315.10742188 336.578125 C313.89634766 336.55234375 312.68527344 336.5265625 311.4375 336.5 C310.19033203 336.48710937 308.94316406 336.47421875 307.65820312 336.4609375 C298.34310096 336.3083091 289.1590825 335.57976606 279.90234375 334.58984375 C276.10312671 334.1848185 272.31945155 333.84177405 268.5 333.6875 C267.64535156 333.64753906 266.79070312 333.60757812 265.91015625 333.56640625 C259.88715933 334.92705168 256.20211879 340.457687 252.75 345.1875 C248.46803332 350.93545412 243.84270109 356.21044866 238.94140625 361.43359375 C236.94731492 363.57700861 235.05587468 365.74934917 233.1875 368 C222.07927603 380.75980643 206.15804292 397.79494737 188.609375 399.49609375 C172.71616228 400.2288462 163.8224947 393.8840525 152.375 383.625 C151.62089844 382.9340625 150.86679688 382.243125 150.08984375 381.53125 C147.94854843 379.58863157 145.77851394 377.69988535 143.5859375 375.81640625 C139.52912016 372.27209399 135.79516406 368.50239254 132.125 364.5625 C131.48054932 363.87357666 130.83609863 363.18465332 130.17211914 362.47485352 C125.04732543 356.92813011 120.33613239 351.13518002 115.75 345.140625 C111.31154227 338.81972622 111.31154227 338.81972622 105.4375 334.125 C98.8260828 333.64233287 92.30797643 334.0940206 85.74267578 334.84350586 C25.17832359 341.68294739 25.17832359 341.68294739 7.203125 328.484375 C-2.38603123 320.43508327 -6.73887109 311.99516413 -8.04638672 299.59423828 C-9.78082138 278.56057856 -9.17031556 257.08611905 -6.78076172 236.14794922 C-6.45853144 233.16137196 -6.24505564 230.18889088 -6.125 227.1875 C-6.08503906 226.33285156 -6.04507813 225.47820312 -6.00390625 224.59765625 C-7.36455168 218.57465933 -12.895187 214.88961879 -17.625 211.4375 C-23.8028892 206.83525107 -29.40989076 201.82087655 -35.01611328 196.54248047 C-36.79355898 194.91320202 -38.61980914 193.34800422 -40.44921875 191.77734375 C-50.62157652 182.91218992 -60.35981289 172.56782939 -67.5625 161.125 C-68.01238281 160.45210937 -68.46226563 159.77921875 -68.92578125 159.0859375 C-73.04736523 151.74923475 -72.73565759 142.2537033 -71.5625 134.125 C-68.85578794 125.11624514 -62.78126738 117.99748657 -56.5625 111.125 C-56.01384277 110.5160791 -55.46518555 109.9071582 -54.89990234 109.27978516 C-43.36073602 96.55373315 -31.28404027 85.03164549 -17.68359375 74.54296875 C-11.31178801 70.04805435 -11.31178801 70.04805435 -6.5625 64.125 C-6.04873679 57.75672581 -6.59331999 51.42189847 -7.28173828 45.09106445 C-8.29158138 35.77152983 -8.85853316 26.49979823 -9 17.125 C-9.03416016 16.00915527 -9.06832031 14.89331055 -9.10351562 13.74365234 C-9.14659933 5.94669905 -9.14659933 5.94669905 -6.2578125 1.8828125 C-3.5625 0.125 -3.5625 0.125 0 0 Z " fill="#020100" transform="translate(71.5625,112.875)"/>
<path d="M0 0 C5.99549756 3.15963838 9.72831707 8.13290125 13 13.9375 C14.28709174 18.2530429 14.33574212 22.03704536 14.0625 26.5 C15.3 26.561875 16.5375 26.62375 17.8125 26.6875 C26.8622944 27.7152369 36.00443833 31.55342262 42.0625 38.5 C47.95616391 46.59417028 48.99084366 53.49573186 48.0625 63.5 C45.83952853 70.83038397 40.25638284 76.25038532 34.0625 80.5 C21.6753622 86.70126278 9.06373405 88.82961043 -4.37890625 84.53515625 C-13.93931747 80.66720362 -20.53178231 75.10295491 -25.875 66.3125 C-27.81282533 59.35912676 -28.38387793 51.65806786 -25.1875 45 C-24.46991111 43.81312288 -23.72254655 42.6433779 -22.9375 41.5 C-22.380625 40.63375 -21.82375 39.7675 -21.25 38.875 C-15.49518744 32.96465196 -8.83668146 29.62885741 -0.9375 27.5 C-1.17157869 22.89645252 -1.35952138 20.36696793 -3.9375 16.5 C-7.47397612 14.14234925 -9.60462225 13.75911089 -13.78515625 14.0234375 C-17.44655604 14.83412856 -18.84862685 16.46163906 -20.9375 19.5 C-21.7744853 22.13932788 -22.32653514 24.79429849 -22.9375 27.5 C-24.125 29.5 -24.125 29.5 -25.9375 30.5 C-29.375 31 -29.375 31 -32.9375 30.5 C-36.24366275 27.78725107 -36.85608698 26.03370755 -37.5 21.8125 C-37.07114497 14.48046235 -33.26480324 8.35309253 -27.9375 3.5 C-20.26446916 -2.93544522 -9.23952098 -3.59403054 0 0 Z " fill="#ECA1AA" transform="translate(347.9375,184.5)"/>
<path d="M0 0 C0 0.66 0 1.32 0 2 C1.45792884 2.05399736 2.91642712 2.09279177 4.375 2.125 C5.59316406 2.15980469 5.59316406 2.15980469 6.8359375 2.1953125 C9.21342243 2.21370051 9.21342243 2.21370051 11 0 C19.77778897 0.97530989 27.41440592 4.83364068 33.21875 11.578125 C38.77132257 19.36082917 39.92626564 25.45401531 39 35 C36.74979651 42.8592473 31.69690194 48.48861396 25 53 C12.6234105 59.25048867 0.09244075 61.30312465 -13.40625 57.03515625 C-22.99003258 53.21030326 -29.59540118 47.60111419 -34.9375 38.8125 C-37.02528535 31.32103493 -37.24528688 23.80629361 -34 16.625 C-28.93979312 7.90391719 -21.31777068 3.37055382 -12 0 C-7.70026715 -1.09435972 -4.37675281 -0.77236814 0 0 Z " fill="#ECA1AA" transform="translate(152,212)"/>
<path d="M0 0 C5.8258856 3.07025256 10.11071345 8.1273571 13 14 C14.61143764 19.30826515 15.16639504 23.38052152 12.5 28.5 C10.0625 30.5 10.0625 30.5 6.5625 31.125 C3.0625 30.5 3.0625 30.5 0.75 28.4375 C-0.9375 25.5 -0.9375 25.5 -1.9375 21.9375 C-3.04434541 18.1327189 -3.60530982 16.63601934 -6.9375 14.5 C-10.06826895 13.8785365 -12.80754486 13.86841977 -15.9375 14.5 C-21.10848773 18.0206725 -21.63617165 21.73697446 -22.9375 27.5 C-24.125 29.5 -24.125 29.5 -25.9375 30.5 C-29.375 31 -29.375 31 -32.9375 30.5 C-36.24366275 27.78725107 -36.85608698 26.03370755 -37.5 21.8125 C-37.07114497 14.48046235 -33.26480324 8.35309253 -27.9375 3.5 C-20.26446916 -2.93544522 -9.23952098 -3.59403054 0 0 Z " fill="#030302" transform="translate(347.9375,184.5)"/>
<path d="M0 0 C5.8258856 3.07025256 10.11071345 8.1273571 13 14 C14.61143764 19.30826515 15.16639504 23.38052152 12.5 28.5 C10.0625 30.5 10.0625 30.5 6.5625 31.125 C3.0625 30.5 3.0625 30.5 0.75 28.4375 C-0.9375 25.5 -0.9375 25.5 -1.9375 21.9375 C-3.04434541 18.1327189 -3.60530982 16.63601934 -6.9375 14.5 C-10.06826895 13.8785365 -12.80754486 13.86841977 -15.9375 14.5 C-21.10848773 18.0206725 -21.63617165 21.73697446 -22.9375 27.5 C-24.125 29.5 -24.125 29.5 -25.9375 30.5 C-32.04514873 31.15439093 -32.04514873 31.15439093 -34.8125 29.125 C-37.3946944 25.39516365 -37.56809922 21.90686197 -36.9375 17.5 C-34.23850666 9.41563211 -29.28390416 3.17320208 -21.609375 -0.6640625 C-14.87231443 -2.77185631 -6.589809 -2.56333362 0 0 Z " fill="#030302" transform="translate(186.9375,184.5)"/>
<path d="M0 0 C2.02318045 1.37054159 3.65599896 2.84098923 5.359375 4.58984375 C8.60239701 7.37729839 12.67797633 7.33573765 16.83984375 7.2890625 C21.22237347 6.70261187 25.4822074 4.65395342 28.48046875 1.38671875 C30.40681059 -0.37125388 31.42605397 -0.40424939 34 -0.375 C36.4205813 -0.25931045 37.81798307 -0.09100847 40 1 C41.72530359 4.45060718 42.10332702 7.35902084 41 11 C36.25594005 17.1583689 29.55373816 21.32827106 22 23 C11.69313774 24.29403337 3.55930729 23.03885357 -5 17 C-7.85045262 14.59358774 -10.18728676 12.27858965 -12 9 C-12.1296177 5.56513088 -11.59779265 4.05492821 -9.9375 1.125 C-6.69912967 -0.75534406 -3.55403911 -0.8362445 0 0 Z " fill="#050402" transform="translate(241,222)"/>
<path d="M0 0 C2.21913851 3.09806696 3.55826459 6.4872375 5 10 C5.70189453 11.50820313 5.70189453 11.50820313 6.41796875 13.046875 C9.05468624 18.86685647 11.14301981 23.59908905 10 30 C7.41832046 33.03727005 5.87501007 33.87499856 1.9375 34.4375 C-1.40055672 33.94034262 -2.52455883 33.23659629 -5 31 C-6.96932374 27.58289502 -8.33881413 23.90455112 -9.8125 20.25 C-10.23208984 19.27289063 -10.65167969 18.29578125 -11.08398438 17.2890625 C-13.36717407 11.70709627 -14.70951271 7.87694231 -13 2 C-9.40911779 -2.89665757 -5.1488099 -2.39685978 0 0 Z " fill="#000000" transform="translate(349,460)"/>
<path d="M0 0 C1.9375 1.625 1.9375 1.625 3 4 C2.6391071 10.53216141 0.75762982 15.83729802 -1.8125 21.8125 C-2.15603516 22.65748047 -2.49957031 23.50246094 -2.85351562 24.37304688 C-3.19705078 25.18451172 -3.54058594 25.99597656 -3.89453125 26.83203125 C-4.20237549 27.56139893 -4.51021973 28.2907666 -4.82739258 29.04223633 C-6.24013304 31.40092169 -7.66961303 32.56128757 -10 34 C-13.7241837 34.55466566 -15.52678113 34.2468968 -18.875 32.5 C-21.31022639 29.63502777 -21.43433557 28.05779349 -21.32958984 24.37158203 C-20.67820539 19.68450899 -18.75655374 15.49637867 -16.875 11.1875 C-16.49601563 10.24712891 -16.11703125 9.30675781 -15.7265625 8.33789062 C-13.8927594 4.06207307 -12.76924784 1.53798969 -8.89453125 -1.171875 C-5.14701625 -2.24403854 -3.4459198 -1.7612479 0 0 Z " fill="#000000" transform="translate(174,460)"/>
<path d="M0 0 C2.5041753 0.95617144 4.96640086 1.9811631 7.42871094 3.0402832 C8.69618164 3.55558594 8.69618164 3.55558594 9.98925781 4.08129883 C10.80072266 4.42483398 11.6121875 4.76836914 12.44824219 5.12231445 C13.17760986 5.43015869 13.90697754 5.73800293 14.65844727 6.05517578 C17.01713262 7.46791624 18.17749851 8.89739624 19.61621094 11.2277832 C20.17087659 14.9519669 19.86310774 16.75456434 18.11621094 20.1027832 C15.25123871 22.53800959 13.67400443 22.66211877 9.98779297 22.55737305 C5.30071993 21.90598859 1.11258961 19.98433694 -3.19628906 18.1027832 C-4.13666016 17.72379883 -5.07703125 17.34481445 -6.04589844 16.9543457 C-10.32171599 15.12054261 -12.84579938 13.99703104 -15.55566406 10.12231445 C-16.6278276 6.37479945 -16.14503696 4.67370301 -14.38378906 1.2277832 C-10.54776303 -3.34594014 -5.07262308 -1.64325141 0 0 Z " fill="#000000" transform="translate(474.3837890625,336.772216796875)"/>
<path d="M0 0 C2.35352451 1.56901634 2.87641182 2.6733741 3.875 5.3125 C4.05557826 9.19493266 3.21036613 10.76698724 1 14 C-2.22473777 16.05166022 -5.64977167 17.44923971 -9.1875 18.875 C-10.10853516 19.2771875 -11.02957031 19.679375 -11.97851562 20.09375 C-17.5623704 22.4239889 -21.9470598 23.67934233 -28 23 C-31.03727005 20.41832046 -31.87499856 18.87501007 -32.4375 14.9375 C-31.94034262 11.59944328 -31.23659629 10.47544117 -29 8 C-25.58289502 6.03067626 -21.90455112 4.66118587 -18.25 3.1875 C-17.27289063 2.76791016 -16.29578125 2.34832031 -15.2890625 1.91601562 C-9.70167814 -0.36939024 -5.88335752 -1.69560572 0 0 Z " fill="#000000" transform="translate(50,336)"/>
<path d="M0 0 C4.68707304 0.65138446 8.87520336 2.57303611 13.18408203 4.45458984 C14.12445313 4.83357422 15.06482422 5.21255859 16.03369141 5.60302734 C20.30950896 7.43683044 22.83359235 8.560342 25.54345703 12.43505859 C26.61562057 16.1825736 26.13282993 17.88367004 24.37158203 21.32958984 C22.74658203 23.26708984 22.74658203 23.26708984 20.37158203 24.32958984 C13.83942062 23.96869695 8.53428402 22.08721966 2.55908203 19.51708984 C1.71410156 19.17355469 0.86912109 18.83001953 -0.00146484 18.47607422 C-0.81292969 18.13253906 -1.62439453 17.78900391 -2.46044922 17.43505859 C-3.18981689 17.12721436 -3.91918457 16.81937012 -4.6706543 16.50219727 C-7.02933965 15.0894568 -8.18970554 13.65997681 -9.62841797 11.32958984 C-10.18308363 7.60540615 -9.87531477 5.80280871 -8.12841797 2.45458984 C-5.26344574 0.01936345 -3.68621146 -0.10474572 0 0 Z " fill="#000000" transform="translate(27.62841796875,152.67041015625)"/>
<path d="M0 0 C2.875 1.5 2.875 1.5 5 4 C5.79669473 11.09855003 3.69101792 16.36363845 0.875 22.8125 C0.49601562 23.75287109 0.11703125 24.69324219 -0.2734375 25.66210938 C-2.1072406 29.93792693 -3.23075216 32.46201031 -7.10546875 35.171875 C-10.85298375 36.24403854 -12.5540802 35.7612479 -16 34 C-17.9375 32.375 -17.9375 32.375 -19 30 C-18.6391071 23.46783859 -16.75762982 18.16270198 -14.1875 12.1875 C-13.84396484 11.34251953 -13.50042969 10.49753906 -13.14648438 9.62695312 C-12.80294922 8.81548828 -12.45941406 8.00402344 -12.10546875 7.16796875 C-11.79762451 6.43860107 -11.48978027 5.7092334 -11.17260742 4.95776367 C-8.43422841 0.3858167 -5.16638901 -0.73805557 0 0 Z " fill="#000000" transform="translate(354,18)"/>
<path d="M0 0 C5.27788946 3.1752229 6.60037825 8.26422305 8.8125 13.75 C9.23208984 14.72710937 9.65167969 15.70421875 10.08398438 16.7109375 C12.36939024 22.29832186 13.69560572 26.11664248 12 32 C10.43098366 34.35352451 9.3266259 34.87641182 6.6875 35.875 C2.80506734 36.05557826 1.23301276 35.21036613 -2 33 C-4.05166022 29.77526223 -5.44923971 26.35022833 -6.875 22.8125 C-7.2771875 21.89146484 -7.679375 20.97042969 -8.09375 20.02148438 C-10.4239889 14.4376296 -11.67934233 10.0529402 -11 4 C-7.71493877 0.13522209 -4.98306141 -0.74215808 0 0 Z " fill="#000000" transform="translate(164,18)"/>
<path d="M0 0 C3.02791041 2.57372384 3.86162709 4.15246594 4.5 8.0625 C3.8767762 11.72393984 2.76895231 12.59638105 0 15 C-3.30797632 16.88818904 -6.81207064 18.31644588 -10.3125 19.8125 C-11.23740234 20.23208984 -12.16230469 20.65167969 -13.11523438 21.08398438 C-18.59057371 23.44612437 -22.18980113 24.65455994 -28 23 C-30.35352451 21.43098366 -30.87641182 20.3266259 -31.875 17.6875 C-32.05557826 13.80506734 -31.21036613 12.23301276 -29 9 C-25.77526223 6.94833978 -22.35022833 5.55076029 -18.8125 4.125 C-17.89146484 3.7228125 -16.97042969 3.320625 -16.02148438 2.90625 C-10.4376296 0.5760111 -6.0529402 -0.67934233 0 0 Z " fill="#000000" transform="translate(490,153)"/>
<path d="M0 0 C0.66 0.33 1.32 0.66 2 1 C1.82597656 1.55171875 1.65195313 2.1034375 1.47265625 2.671875 C0.92594708 5.36475653 1.11497719 7.52647404 1.4375 10.25 C1.53933594 11.14203125 1.64117187 12.0340625 1.74609375 12.953125 C1.82988281 13.62859375 1.91367188 14.3040625 2 15 C-0.31 14.34 -2.62 13.68 -5 13 C-4.74379316 11.3934324 -4.46944129 9.7897517 -4.1875 8.1875 C-4.03667969 7.29417969 -3.88585937 6.40085938 -3.73046875 5.48046875 C-2.94604607 2.81678744 -2.11372201 1.74309678 0 0 Z " fill="#E4C772" transform="translate(169,199)"/>
</svg>
